<?xml version="1.0" standalone="no"?>
<!DOCTYPE svg PUBLIC "-//W3C//DTD SVG 20010904//EN"
 "http://www.w3.org/TR/2001/REC-SVG-20010904/DTD/svg10.dtd">
<svg version="1.0" xmlns="http://www.w3.org/2000/svg"
 width="256.000000pt" height="256.000000pt" viewBox="0 0 256.000000 256.000000"
 preserveAspectRatio="xMidYMid meet">
<metadata>
Created by potrace 1.14, written by Peter Selinger 2001-2017
</metadata>
<g transform="translate(0.000000,256.000000) scale(0.100000,-0.100000)"
fill="#000000" stroke="none">
<path d="M610 2102 c0 -4 60 -67 133 -139 l132 -132 320 -3 c310 -3 321 -4
362 -26 109 -58 163 -142 163 -254 0 -39 -7 -85 -15 -105 -24 -57 -78 -116
-136 -148 l-54 -30 -457 -3 -458 -3 0 -419 0 -420 140 0 140 0 0 280 0 280
313 0 c280 0 322 2 391 20 106 27 168 63 252 145 116 114 164 230 164 400 0
165 -47 281 -160 396 -79 80 -153 123 -256 149 -71 19 -111 20 -526 20 -246 0
-448 -3 -448 -8z"/>
</g>
</svg>
